<svg xmlns="http://www.w3.org/2000/svg" xmlns:xlink="http://www.w3.org/1999/xlink" width="800" height="521.04"><rect width="800" height="521.04" rx="0" ry="0" class="a"/><svg height="521.04" viewBox="0 0 80 52.104" width="800" xmlns="http://www.w3.org/2000/svg" xmlns:xlink="http://www.w3.org/1999/xlink"><style>@keyframes g{0%{transform:translateX(0)}.07%{transform:translateX(-80px)}5.33%{transform:translateX(-160px)}10.59%{transform:translateX(-320px)}15.85%{transform:translateX(-400px)}21.1%{transform:translateX(-480px)}26.35%{transform:translateX(-560px)}31.61%{transform:translateX(-640px)}36.87%{transform:translateX(-720px)}42.18%{transform:translateX(-800px)}47.44%{transform:translateX(-880px)}52.69%{transform:translateX(-960px)}57.95%{transform:translateX(-1040px)}63.2%{transform:translateX(-1120px)}68.46%{transform:translateX(-1200px)}73.71%{transform:translateX(-1280px)}78.97%{transform:translateX(-1360px)}84.22%{transform:translateX(-1440px)}89.48%{transform:translateX(-1520px)}94.73%{transform:translateX(-1600px)}to{transform:translateX(-1680px)}}.a{fill:#282d35}.c,.d{fill:#b9c0cb;white-space:pre}.d{fill:#a8cc8c}</style><g font-family="Monaco,Consolas,Menlo,'Bitstream Vera Sans Mono','Powerline Symbols',monospace" font-size="1.67"><defs><symbol id="1"><text y="1.67" class="c">$</text></symbol><symbol id="2"><text y="1.67" class="c">$</text><text x="2.004" y="1.67" class="c">whoami</text></symbol><symbol id="3"><text y="1.67" class="c">Jomon</text><text x="6.012" y="1.67" class="c">Solinap</text></symbol><symbol id="4"><text y="1.67" class="c">A</text><text x="2.004" y="1.67" class="c">passionate</text><text x="13.026" y="1.67" class="c">developer</text><text x="23.046" y="1.67" class="c">who</text><text x="27.054" y="1.67" class="c">loves</text><text x="33.066" y="1.67" class="c">turning</text><text x="41.082" y="1.67" class="c">ideas</text><text x="47.094" y="1.67" class="c">into</text><text x="52.104" y="1.67" class="c">reality</text><text x="60.12" y="1.67" class="c">with</text><text x="65.13" y="1.67" class="c">code.</text></symbol><symbol id="5"><text y="1.67" class="c">$</text><text x="2.004" y="1.67" class="c">git</text><text x="6.012" y="1.67" class="c">clone</text><text x="12.024" y="1.67" class="c">https://github.com/jomonsolinap/my-portfolio.git</text></symbol><symbol id="6"><text y="1.67" class="c">Cloning</text><text x="8.016" y="1.67" class="c">into</text><text x="13.026" y="1.67" class="c">&apos;my-portfolio&apos;...</text></symbol><symbol id="7"><text y="1.67" class="c">Done.</text></symbol><symbol id="8"><text y="1.67" class="c">$</text><text x="2.004" y="1.67" class="c">cd</text><text x="5.01" y="1.67" class="c">my-portfolio</text></symbol><symbol id="9"><text y="1.67" class="c">$</text><text x="2.004" y="1.67" class="c">ls</text><text x="5.01" y="1.67" class="c">-l</text></symbol><symbol id="10"><text y="1.67" class="c">total</text><text x="6.012" y="1.67" class="c">12</text></symbol><symbol id="11"><text y="1.67" class="c">-rw-r--r--</text><text x="11.022" y="1.67" class="c">1</text><text x="13.026" y="1.67" class="c">user</text><text x="18.036" y="1.67" class="c">user</text><text x="23.046" y="1.67" class="c">1234</text><text x="28.056" y="1.67" class="c">Oct</text><text x="32.064" y="1.67" class="c">15</text><text x="35.07" y="1.67" class="c">08:17</text><text x="41.082" y="1.67" class="c">package.json</text></symbol><symbol id="12"><text y="1.67" class="c">-rw-r--r--</text><text x="11.022" y="1.67" class="c">1</text><text x="13.026" y="1.67" class="c">user</text><text x="18.036" y="1.67" class="c">user</text><text x="23.046" y="1.67" class="c">5678</text><text x="28.056" y="1.67" class="c">Oct</text><text x="32.064" y="1.67" class="c">15</text><text x="35.07" y="1.67" class="c">08:17</text><text x="41.082" y="1.67" class="c">README.md</text></symbol><symbol id="13"><text y="1.67" class="c">drwxr-xr-x</text><text x="11.022" y="1.67" class="c">2</text><text x="13.026" y="1.67" class="c">user</text><text x="18.036" y="1.67" class="c">user</text><text x="23.046" y="1.67" class="c">4096</text><text x="28.056" y="1.67" class="c">Oct</text><text x="32.064" y="1.67" class="c">15</text><text x="35.07" y="1.67" class="c">08:17</text><text x="41.082" y="1.67" class="c">src</text></symbol><symbol id="14"><text y="1.67" class="c">$</text><text x="2.004" y="1.67" class="c">npm</text><text x="6.012" y="1.67" class="c">install</text></symbol><symbol id="15"><text y="1.67" class="c">added</text><text x="6.012" y="1.67" class="c">150</text><text x="10.02" y="1.67" class="c">packages</text><text x="19.038" y="1.67" class="c">in</text><text x="22.044" y="1.67" class="c">5s</text></symbol><symbol id="16"><text y="1.67" class="c">$</text><text x="2.004" y="1.67" class="c">npm</text><text x="6.012" y="1.67" class="c">run</text><text x="10.02" y="1.67" class="c">build</text></symbol><symbol id="17"><text y="1.67" class="c">&gt;</text><text x="2.004" y="1.67" class="c">my-portfolio@1.0.0</text><text x="21.042" y="1.67" class="c">build</text><text x="27.054" y="1.67" class="c">/home/user/my-portfolio</text></symbol><symbol id="18"><text y="1.67" class="c">&gt;</text><text x="2.004" y="1.67" class="c">react-scripts</text><text x="16.032" y="1.67" class="c">build</text></symbol><symbol id="19"><text y="1.67" class="d">Build</text><text x="6.012" y="1.67" class="d">successful!</text></symbol><symbol id="a"><path fill="transparent" d="M0 0h80v24H0z"/></symbol><symbol id="b"><path fill="#6f7683" d="M0 0h1.102v2.171H0z"/></symbol></defs><path class="a" d="M0 0h80v52.104H0z"/><g style="animation-duration:19.109292s;animation-iteration-count:infinite;animation-name:g;animation-timing-function:steps(1,end)"><svg width="1760"><svg><use xlink:href="#a"/><use xlink:href="#b" x="-.004"/></svg><svg x="80"><use xlink:href="#a"/><use xlink:href="#b" x="1.996"/><use xlink:href="#1"/></svg><svg x="160"><use xlink:href="#a"/><use xlink:href="#b" x="-.004" y="2.146"/><use xlink:href="#2"/></svg><svg x="240"><use xlink:href="#a"/><use xlink:href="#b" x="-.004" y="4.317"/><use xlink:href="#2"/><use xlink:href="#3" y="2.171"/></svg><svg x="320"><use xlink:href="#a"/><use xlink:href="#b" x="-.004" y="8.659"/><use xlink:href="#2"/><use xlink:href="#3" y="2.171"/><use xlink:href="#4" y="4.342"/></svg><svg x="400"><use xlink:href="#a"/><use xlink:href="#b" x="1.996" y="8.659"/><use xlink:href="#2"/><use xlink:href="#3" y="2.171"/><use xlink:href="#4" y="4.342"/><use xlink:href="#1" y="8.684"/></svg><svg x="480"><use xlink:href="#a"/><use xlink:href="#b" x="-.004" y="10.83"/><use xlink:href="#2"/><use xlink:href="#3" y="2.171"/><use xlink:href="#4" y="4.342"/><use xlink:href="#5" y="8.684"/></svg><svg x="560"><use xlink:href="#a"/><use xlink:href="#b" x="-.004" y="13.001"/><use xlink:href="#2"/><use xlink:href="#3" y="2.171"/><use xlink:href="#4" y="4.342"/><use xlink:href="#5" y="8.684"/><use xlink:href="#6" y="10.855"/></svg><svg x="640"><use xlink:href="#a"/><use xlink:href="#b" x="-.004" y="17.343"/><use xlink:href="#2"/><use xlink:href="#3" y="2.171"/><use xlink:href="#4" y="4.342"/><use xlink:href="#5" y="8.684"/><use xlink:href="#6" y="10.855"/><use xlink:href="#7" y="13.026"/></svg><svg x="720"><use xlink:href="#a"/><use xlink:href="#b" x="1.996" y="17.343"/><use xlink:href="#2"/><use xlink:href="#3" y="2.171"/><use xlink:href="#4" y="4.342"/><use xlink:href="#5" y="8.684"/><use xlink:href="#6" y="10.855"/><use xlink:href="#7" y="13.026"/><use xlink:href="#1" y="17.368"/></svg><svg x="800"><use xlink:href="#a"/><use xlink:href="#b" x="-.004" y="19.514"/><use xlink:href="#2"/><use xlink:href="#3" y="2.171"/><use xlink:href="#4" y="4.342"/><use xlink:href="#5" y="8.684"/><use xlink:href="#6" y="10.855"/><use xlink:href="#7" y="13.026"/><use xlink:href="#8" y="17.368"/></svg><svg x="880"><use xlink:href="#a"/><use xlink:href="#b" x="1.996" y="21.685"/><use xlink:href="#2"/><use xlink:href="#3" y="2.171"/><use xlink:href="#4" y="4.342"/><use xlink:href="#5" y="8.684"/><use xlink:href="#6" y="10.855"/><use xlink:href="#7" y="13.026"/><use xlink:href="#8" y="17.368"/><use xlink:href="#1" y="21.71"/></svg><svg x="960"><use xlink:href="#a"/><use xlink:href="#b" x="-.004" y="23.856"/><use xlink:href="#2"/><use xlink:href="#3" y="2.171"/><use xlink:href="#4" y="4.342"/><use xlink:href="#5" y="8.684"/><use xlink:href="#6" y="10.855"/><use xlink:href="#7" y="13.026"/><use xlink:href="#8" y="17.368"/><use xlink:href="#9" y="21.71"/></svg><svg x="1040"><use xlink:href="#a"/><use xlink:href="#b" x="-.004" y="34.711"/><use xlink:href="#2"/><use xlink:href="#3" y="2.171"/><use xlink:href="#4" y="4.342"/><use xlink:href="#5" y="8.684"/><use xlink:href="#6" y="10.855"/><use xlink:href="#7" y="13.026"/><use xlink:href="#8" y="17.368"/><use xlink:href="#9" y="21.71"/><use xlink:href="#10" y="23.881"/><use xlink:href="#11" y="26.052"/><use xlink:href="#12" y="28.223"/><use xlink:href="#13" y="30.394"/></svg><svg x="1120"><use xlink:href="#a"/><use xlink:href="#b" x="1.996" y="34.711"/><use xlink:href="#2"/><use xlink:href="#3" y="2.171"/><use xlink:href="#4" y="4.342"/><use xlink:href="#5" y="8.684"/><use xlink:href="#6" y="10.855"/><use xlink:href="#7" y="13.026"/><use xlink:href="#8" y="17.368"/><use xlink:href="#9" y="21.71"/><use xlink:href="#10" y="23.881"/><use xlink:href="#11" y="26.052"/><use xlink:href="#12" y="28.223"/><use xlink:href="#13" y="30.394"/><use xlink:href="#1" y="34.736"/></svg><svg x="1200"><use xlink:href="#a"/><use xlink:href="#b" x="-.004" y="36.882"/><use xlink:href="#2"/><use xlink:href="#3" y="2.171"/><use xlink:href="#4" y="4.342"/><use xlink:href="#5" y="8.684"/><use xlink:href="#6" y="10.855"/><use xlink:href="#7" y="13.026"/><use xlink:href="#8" y="17.368"/><use xlink:href="#9" y="21.71"/><use xlink:href="#10" y="23.881"/><use xlink:href="#11" y="26.052"/><use xlink:href="#12" y="28.223"/><use xlink:href="#13" y="30.394"/><use xlink:href="#14" y="34.736"/></svg><svg x="1280"><use xlink:href="#a"/><use xlink:href="#b" x="-.004" y="41.224"/><use xlink:href="#2"/><use xlink:href="#3" y="2.171"/><use xlink:href="#4" y="4.342"/><use xlink:href="#5" y="8.684"/><use xlink:href="#6" y="10.855"/><use xlink:href="#7" y="13.026"/><use xlink:href="#8" y="17.368"/><use xlink:href="#9" y="21.71"/><use xlink:href="#10" y="23.881"/><use xlink:href="#11" y="26.052"/><use xlink:href="#12" y="28.223"/><use xlink:href="#13" y="30.394"/><use xlink:href="#14" y="34.736"/><use xlink:href="#15" y="36.907"/></svg><svg x="1360"><use xlink:href="#a"/><use xlink:href="#b" x="1.996" y="41.224"/><use xlink:href="#2"/><use xlink:href="#3" y="2.171"/><use xlink:href="#4" y="4.342"/><use xlink:href="#5" y="8.684"/><use xlink:href="#6" y="10.855"/><use xlink:href="#7" y="13.026"/><use xlink:href="#8" y="17.368"/><use xlink:href="#9" y="21.71"/><use xlink:href="#10" y="23.881"/><use xlink:href="#11" y="26.052"/><use xlink:href="#12" y="28.223"/><use xlink:href="#13" y="30.394"/><use xlink:href="#14" y="34.736"/><use xlink:href="#15" y="36.907"/><use xlink:href="#1" y="41.249"/></svg><svg x="1440"><use xlink:href="#a"/><use xlink:href="#b" x="-.004" y="43.395"/><use xlink:href="#2"/><use xlink:href="#3" y="2.171"/><use xlink:href="#4" y="4.342"/><use xlink:href="#5" y="8.684"/><use xlink:href="#6" y="10.855"/><use xlink:href="#7" y="13.026"/><use xlink:href="#8" y="17.368"/><use xlink:href="#9" y="21.71"/><use xlink:href="#10" y="23.881"/><use xlink:href="#11" y="26.052"/><use xlink:href="#12" y="28.223"/><use xlink:href="#13" y="30.394"/><use xlink:href="#14" y="34.736"/><use xlink:href="#15" y="36.907"/><use xlink:href="#16" y="41.249"/></svg><svg x="1520"><use xlink:href="#a"/><use xlink:href="#b" x="-.004" y="49.908"/><use xlink:href="#4"/><use xlink:href="#5" y="4.342"/><use xlink:href="#6" y="6.513"/><use xlink:href="#7" y="8.684"/><use xlink:href="#8" y="13.026"/><use xlink:href="#9" y="17.368"/><use xlink:href="#10" y="19.539"/><use xlink:href="#11" y="21.71"/><use xlink:href="#12" y="23.881"/><use xlink:href="#13" y="26.052"/><use xlink:href="#14" y="30.394"/><use xlink:href="#15" y="32.565"/><use xlink:href="#16" y="36.907"/><use xlink:href="#17" y="39.078"/><use xlink:href="#18" y="41.249"/><use xlink:href="#19" y="45.591"/></svg><svg x="1600"><use xlink:href="#a"/><use xlink:href="#b" x="1.996" y="49.908"/><use xlink:href="#4"/><use xlink:href="#5" y="4.342"/><use xlink:href="#6" y="6.513"/><use xlink:href="#7" y="8.684"/><use xlink:href="#8" y="13.026"/><use xlink:href="#9" y="17.368"/><use xlink:href="#10" y="19.539"/><use xlink:href="#11" y="21.71"/><use xlink:href="#12" y="23.881"/><use xlink:href="#13" y="26.052"/><use xlink:href="#14" y="30.394"/><use xlink:href="#15" y="32.565"/><use xlink:href="#16" y="36.907"/><use xlink:href="#17" y="39.078"/><use xlink:href="#18" y="41.249"/><use xlink:href="#19" y="45.591"/><use xlink:href="#1" y="49.933"/></svg><svg x="1680"><use xlink:href="#a"/><use xlink:href="#b" x="-.004" y="49.908"/><use xlink:href="#5" y="2.171"/><use xlink:href="#6" y="4.342"/><use xlink:href="#7" y="6.513"/><use xlink:href="#8" y="10.855"/><use xlink:href="#9" y="15.197"/><use xlink:href="#10" y="17.368"/><use xlink:href="#11" y="19.539"/><use xlink:href="#12" y="21.71"/><use xlink:href="#13" y="23.881"/><use xlink:href="#14" y="28.223"/><use xlink:href="#15" y="30.394"/><use xlink:href="#16" y="34.736"/><use xlink:href="#17" y="36.907"/><use xlink:href="#18" y="39.078"/><use xlink:href="#19" y="43.42"/><text y="49.432" class="c">$</text><text x="2.004" y="49.432" class="c">exit</text></svg></svg></g></g></svg></svg>